<svg xmlns="http://www.w3.org/2000/svg" viewBox="0 0 48 48" fill="none">
  <circle cx="24" cy="24" r="22" fill="#FDE8EF"/>
  <path d="M12 30c0-2 2-4 4-4h16c2 0 4 2 4 4v4c0 2-2 4-4 4H16c-2 0-4-2-4-4v-4z" fill="#E91E63"/>
  <rect x="14" y="24" width="20" height="4" rx="2" fill="#FF6B9D"/>
  <path d="M20 24v-4c0-1 1-2 2-2h4c1 0 2 1 2 2v4" stroke="#E91E63" stroke-width="2"/>
  <circle cx="24" cy="16" r="2" fill="#FF9800"/>
  <path d="M24 14v-2" stroke="#FF9800" stroke-width="1.5" stroke-linecap="round"/>
</svg>
